<svg width="32" height="32" viewBox="0 0 32 32" fill="none" xmlns="http://www.w3.org/2000/svg">
<path d="M31.4595 16.2766V16.2688C31.4595 11.6796 29.4615 7.55818 26.2887 4.724L26.2732 4.71107C26.234 4.66883 26.1902 4.63111 26.1426 4.59863L26.14 4.59734C23.3221 2.12312 19.6983 0.762009 15.9483 0.769316C12.0299 0.769316 8.45255 2.22453 5.72563 4.62577L5.74243 4.61156C5.70956 4.63649 5.67926 4.66463 5.65197 4.69556V4.69686C4.01262 6.14844 2.70042 7.9318 1.8023 9.92878C0.904183 11.9258 0.440642 14.0908 0.442388 16.2804C0.442388 20.8684 2.43782 24.9898 5.60803 27.8253L5.62353 27.8382C5.66459 27.8848 5.71051 27.9268 5.76053 27.9636L5.76311 27.9648C8.58029 30.4354 12.2013 31.7945 15.9483 31.7877C19.7129 31.7935 23.3494 30.4218 26.1724 27.9312L26.1556 27.9455C27.8233 26.4955 29.1602 24.7042 30.0757 22.6928C30.9912 20.6814 31.464 18.4968 31.4621 16.2869V16.2779L31.4595 16.2766ZM25.6929 26.3636C24.9246 25.7422 24.0985 25.196 23.2257 24.7326L23.1417 24.6912C23.934 22.4076 24.4108 19.775 24.4561 17.0365V17.0158H29.9629C29.7772 20.5587 28.2522 23.8988 25.6968 26.3597L25.6929 26.3636ZM16.6902 24.4186C18.3483 24.5077 19.8979 24.8722 21.3272 25.4654L21.2342 25.4318C20.0891 28.0424 18.4775 29.8362 16.6902 30.2304V24.4186ZM16.6902 22.9401V17.0158H22.9815C22.9316 19.4691 22.5062 21.9002 21.7201 24.2247L21.7705 24.0554C20.166 23.3959 18.4594 23.019 16.7264 22.9414L16.6915 22.9401H16.6902ZM16.6902 15.5373V9.61306C18.47 9.53183 20.2222 9.14221 21.8687 8.46156L21.7666 8.49903C22.4839 10.5914 22.9246 13.003 22.9815 15.5102V15.5373H16.6902ZM16.6902 8.13458V2.32534C18.4775 2.71952 20.0891 4.50558 21.2342 7.12394C19.8979 7.67967 18.3483 8.04282 16.7277 8.13329L16.6902 8.13458ZM20.3786 2.96507C21.9015 3.47302 23.3258 4.23891 24.5892 5.22932L24.5595 5.20605C23.9869 5.6558 23.3446 6.0797 22.6674 6.44803L22.5951 6.48421C22.0478 5.19278 21.2954 3.99829 20.367 2.94697L20.3786 2.96119V2.96507ZM15.2091 2.32922V8.13458C13.6149 8.05326 12.0465 7.69919 10.5721 7.08776L10.6651 7.12136C11.8153 4.51075 13.4243 2.71822 15.2117 2.32405L15.2091 2.32922ZM9.30552 6.48034C8.60496 6.10342 7.93745 5.66807 7.31009 5.17891L7.34111 5.20218C8.56774 4.24084 9.94747 3.49287 11.4224 2.98962L11.5207 2.9599C10.6165 3.98273 9.87983 5.14209 9.33783 6.39504L9.30552 6.47905V6.48034ZM15.2117 9.61177V15.536H8.92039C8.97726 13.0017 9.41796 10.5901 10.1856 8.32844L10.1352 8.49774C11.7391 9.15617 13.4447 9.53262 15.1768 9.61048L15.2117 9.61177ZM15.2117 17.0145V22.9388C13.4319 23.02 11.6797 23.4096 10.0331 24.0903L10.1352 24.0528C9.41796 21.9617 8.97726 19.5489 8.92039 17.0417V17.0145H15.2117ZM15.2117 24.4173V30.2265C13.4243 29.8323 11.8127 28.0463 10.6677 25.4279C12.004 24.8722 13.5536 24.5103 15.1742 24.4198L15.2117 24.4186V24.4173ZM11.5284 29.5868C10.0059 29.0803 8.58171 28.3162 7.31784 27.3277L7.34886 27.351C7.92138 26.9012 8.5637 26.4773 9.2409 26.109L9.31328 26.0728C9.85592 27.3648 10.6083 28.5582 11.54 29.6049L11.5284 29.5919V29.5868ZM22.5963 26.0715C23.3459 26.4786 23.9882 26.9012 24.5918 27.3729L24.5608 27.3497C23.3341 28.311 21.9544 29.059 20.4794 29.5622L20.3812 29.5919C21.2853 28.5696 22.022 27.4107 22.564 26.1581L22.5963 26.0741V26.0715ZM29.9629 15.5373H24.4561C24.4165 12.8633 23.955 10.2124 23.0887 7.68225L23.1417 7.8606C24.0547 7.37991 24.919 6.81207 25.7226 6.165L25.6916 6.18826C28.2418 8.63994 29.7673 11.9676 29.9603 15.4998L29.9616 15.536L29.9629 15.5373ZM6.20898 6.18955C6.95339 6.79439 7.78956 7.34882 8.67613 7.82053L8.76014 7.86189C7.96791 10.1455 7.49102 12.7781 7.44579 15.5167V15.5373H1.93767C2.12337 11.9944 3.64833 8.65439 6.20381 6.19343L6.20769 6.18955H6.20898ZM1.93896 17.0158H7.44579C7.48541 19.6898 7.94686 22.3408 8.81313 24.8709L8.76014 24.6925C7.78956 25.2082 6.95468 25.7626 6.17926 26.3881L6.21027 26.3649C3.66007 23.9132 2.13458 20.5856 1.94155 17.0533L1.94025 17.0171L1.93896 17.0158Z" fill="#2C2C2C"/>
</svg>
