<svg width="41" height="41" viewBox="0 0 41 41" fill="none" xmlns="http://www.w3.org/2000/svg">
<path d="M20.1216 0.195068C22.7737 0.195068 25.3173 1.24864 27.1926 3.124C29.068 4.99936 30.1216 7.5429 30.1216 10.1951C30.1216 12.8472 29.068 15.3908 27.1926 17.2661C25.3173 19.1415 22.7737 20.1951 20.1216 20.1951C17.4694 20.1951 14.9259 19.1415 13.0505 17.2661C11.1752 15.3908 10.1216 12.8472 10.1216 10.1951C10.1216 7.5429 11.1752 4.99936 13.0505 3.124C14.9259 1.24864 17.4694 0.195068 20.1216 0.195068ZM20.1216 25.1951C31.1716 25.1951 40.1216 29.6701 40.1216 35.1951V40.1951H0.121582V35.1951C0.121582 29.6701 9.07158 25.1951 20.1216 25.1951Z" fill="#2C2C2C"/>
</svg>
