<svg width="35" height="41" viewBox="0 0 35 41" fill="none" xmlns="http://www.w3.org/2000/svg">
<path d="M22.9787 0.327637H11.5502V4.13716H22.9787V0.327637ZM15.3597 25.0895H19.1692V13.661H15.3597V25.0895ZM30.6549 12.4991L33.3597 9.7943C32.5406 8.82287 31.6454 7.90859 30.674 7.10859L27.9692 9.81335C25.0168 7.45145 21.3025 6.04192 17.2644 6.04192C7.79777 6.04192 0.121582 13.7181 0.121582 23.1848C0.121582 32.6514 7.77872 40.3276 17.2644 40.3276C26.7502 40.3276 34.4073 32.6514 34.4073 23.1848C34.4073 19.1467 32.9978 15.4324 30.6549 12.4991ZM17.2644 36.5181C9.89301 36.5181 3.93111 30.5562 3.93111 23.1848C3.93111 15.8134 9.89301 9.85145 17.2644 9.85145C24.6359 9.85145 30.5978 15.8134 30.5978 23.1848C30.5978 30.5562 24.6359 36.5181 17.2644 36.5181Z" fill="#2C2C2C"/>
</svg>
