<svg width="1018" height="1040" viewBox="0 0 1018 1040" fill="none" xmlns="http://www.w3.org/2000/svg">
<path fill-rule="evenodd" clip-rule="evenodd" d="M251.353 518.131C188.562 468.352 148.286 391.406 148.286 305.053C148.286 154.964 269.958 33.2923 420.047 33.2923C461.192 33.2923 500.202 42.4361 535.154 58.8024C488.809 22.061 430.197 0.119629 366.461 0.119629C216.371 0.119629 94.6997 121.791 94.6997 271.88C94.6997 380.825 158.806 474.796 251.353 518.131Z" fill="#FAF4E6"/>
<path d="M298.856 167.886C305.563 150.28 326.521 134.351 345.804 149.442C352.51 157.825 361.397 176.269 343.288 182.976C344.965 185.491 360.894 185.491 367.601 182.976C374.308 180.461 386.045 181.299 383.529 187.167C381.014 193.036 367.601 191.359 349.157 195.551C330.713 199.743 327.36 203.096 314.785 202.258C302.209 201.419 314.785 197.228 294.664 198.904C274.544 200.581 208.314 206.45 211.667 197.228C215.02 188.006 233.464 193.036 243.524 193.036C253.585 193.036 258.615 184.652 266.16 182.976C273.705 181.299 272.028 188.844 277.059 188.844C282.089 188.844 292.149 185.491 298.856 167.886Z" fill="white"/>
<path fill-rule="evenodd" clip-rule="evenodd" d="M278.435 200.225C281.818 199.153 284.863 196.779 287.441 194.769C287.631 194.621 287.819 194.475 288.004 194.331C288.62 193.853 289.213 193.352 289.805 192.852C291.084 191.772 292.356 190.697 293.832 189.876C295.627 188.876 297.176 188.165 299.287 188.247C301.126 188.32 302.805 188.944 304.501 189.576C304.636 189.626 304.771 189.677 304.907 189.727C305.926 190.104 306.884 190.617 307.841 191.13C309.226 191.872 310.607 192.612 312.164 192.934C314.896 193.499 317.889 193.894 320.272 192.157C320.426 192.045 320.583 191.934 320.741 191.82C322.303 190.707 324.047 189.463 324.446 186.867C324.5 186.521 324.545 186.123 324.59 185.718C324.735 184.434 324.886 183.09 325.331 183.189C327.232 183.612 329.398 183.749 331.356 183.776C332.396 183.79 333.436 183.786 334.475 183.781C334.995 183.778 335.515 183.776 336.035 183.776C336.351 183.776 336.671 183.785 336.993 183.794C337.641 183.812 338.294 183.83 338.927 183.776C340.403 183.65 341.895 183.386 343.369 183.081C345.415 185.491 360.989 185.455 367.601 182.976C374.308 180.461 386.045 181.299 383.53 187.168C381.951 190.851 376.08 191.562 367.366 192.617C362.196 193.243 356.025 193.99 349.157 195.551C342.835 196.988 338.286 198.326 334.531 199.431C327.331 201.549 323.05 202.809 314.785 202.258C309.42 201.9 308.633 200.932 307.931 200.07C306.989 198.911 306.201 197.943 294.665 198.905C293.984 198.961 293.25 199.023 292.468 199.089C288.73 199.402 283.89 199.808 278.435 200.225Z" fill="#EBEDFF"/>
<path d="M175.288 281.291C206.322 283.718 209.358 310.858 212.059 316.111C219.263 312.809 228.569 313.109 235.172 316.111C241.776 319.112 251.564 331.333 262.337 330.519C276.378 329.458 277.655 333.997 290.853 334.721C301.921 335.329 331.676 334.721 331.676 338.473C331.676 341.072 331.676 343.364 326.723 343.576C317.568 343.969 225.877 345.712 210.408 343.576C214.911 359.035 181.141 358.735 165.081 356.784C134.164 367.74 107.899 359.786 97.6931 348.079C70.5276 346.278 -7.8158 355.883 1.18933 348.079C10.1945 340.274 28.3548 351.981 51.618 343.576C74.8813 335.171 99.3452 335.322 106.399 332.77C103.848 325.866 119.306 314.91 129.662 316.111C121.858 296.75 148.423 279.19 175.288 281.291Z" fill="white"/>
<path fill-rule="evenodd" clip-rule="evenodd" d="M50.1138 349.506C51.1383 349.269 52.158 349.017 53.1719 348.75C54.8756 348.3 56.3487 347.504 57.8382 346.698C58.619 346.276 59.4043 345.852 60.2297 345.473C60.3707 345.409 60.5188 345.339 60.6726 345.268C61.8216 344.73 63.288 344.044 64.4644 344.044C65.3854 344.044 66.2351 344.263 67.0885 344.482C67.8432 344.676 68.6009 344.871 69.4136 344.916C72.1064 345.065 75.2182 345.078 77.7785 344.132C78.7679 343.766 79.3936 343.118 80.0252 342.464C80.4638 342.011 80.9051 341.554 81.473 341.186C82.1473 340.75 83.4974 341.549 84.6311 342.22C85.2066 342.56 85.7264 342.868 86.0736 342.964C88.2078 343.555 90.5944 343.486 92.8272 343.422C93.0996 343.414 93.3698 343.406 93.6369 343.4C95.1854 343.362 96.5236 343.319 97.6799 342.197C97.6931 342.184 97.7121 342.166 97.736 342.144C98.0477 341.849 99.1779 340.778 98.6732 340.576C97.3292 340.039 99.6855 340.221 102.063 340.406C103.274 340.5 104.489 340.594 105.226 340.594C109.751 340.594 111.558 344.328 113.353 348.034C114.432 350.263 115.506 352.481 117.163 353.873C118.848 355.289 119.277 352.318 119.688 349.469C120.036 347.054 120.372 344.726 121.45 345.229C122.15 345.556 122.318 344.54 122.475 343.589C122.664 342.449 122.837 341.402 123.89 342.859C124.287 343.409 124.612 344.003 124.938 344.597C125.305 345.264 125.671 345.932 126.138 346.536C127.497 348.296 129.483 348.665 131.565 349.052L131.627 349.063C132.113 349.154 132.598 349.246 133.083 349.338C136.491 349.985 139.898 350.632 143.373 350.632C145.539 350.632 146.216 347.353 146.475 345.543C147.074 341.348 145.651 337.067 144.325 333.076C144.168 332.604 144.012 332.135 143.861 331.671C143.646 331.012 143.137 330.196 142.619 329.366C141.641 327.802 140.632 326.186 141.507 325.468C141.505 325.464 141.506 325.464 141.508 325.467L141.507 325.468C141.637 325.699 150.739 339.276 151.32 339.374C152.334 339.546 151.693 335.431 151.147 331.923C150.797 329.677 150.486 327.68 150.673 327.217C150.86 326.754 150.856 326.823 150.837 327.099C150.807 327.53 150.744 328.465 151.32 328.674C151.688 328.808 151.821 329.132 151.956 329.461C152.048 329.686 152.142 329.914 152.313 330.086C153.12 330.893 154.093 331.564 155.068 332.236C155.941 332.838 156.816 333.442 157.576 334.146C157.766 334.322 157.95 334.514 158.135 334.708C158.528 335.119 158.927 335.536 159.406 335.819C159.657 335.968 159.94 336.03 160.22 336.092C160.51 336.156 160.797 336.219 161.044 336.377C161.68 336.782 162.298 336.892 163.024 337.022C163.117 337.039 163.212 337.056 163.309 337.074C163.766 337.158 163.568 336.562 163.293 335.733C162.83 334.337 162.147 332.28 164.006 331.706C164.038 331.736 164.088 331.783 164.152 331.845C164.743 332.417 166.567 334.18 167.039 333.484C167.744 332.442 167.319 329.728 167.032 327.899C166.947 327.353 166.874 326.885 166.847 326.565C166.772 325.676 166.685 324.782 166.597 323.886C166.294 320.796 165.988 317.677 166.202 314.593C166.227 314.23 166.813 309.291 167.352 312.084C168.205 316.5 169.076 320.553 171.848 324.265C175.072 328.581 179.745 331.919 184.988 333.275C190.995 334.828 196.143 327.896 198.442 323.237C199.202 321.695 199.727 320.028 200.05 318.328C200.03 317.379 200.046 316.434 200.184 315.499C200.338 314.462 200.485 314.396 200.393 315.674C200.33 316.559 200.217 317.448 200.05 318.328C200.059 318.733 200.074 319.139 200.09 319.544C200.143 320.945 200.196 322.346 199.975 323.725C199.937 323.961 199.897 324.203 199.855 324.448C199.418 327.034 198.911 330.036 201.056 331.95C203.462 334.099 206.907 335.261 210.1 335.261C211.493 335.261 212.798 335.218 214.161 334.878C216.19 334.371 216.649 330.984 216.906 329.087C216.934 328.884 216.959 328.698 216.984 328.535C217.065 327.994 217.11 327.141 217.156 326.264C217.261 324.278 217.372 322.166 217.925 323.272C218.09 323.602 218.032 324.188 217.992 324.593C217.987 324.65 217.981 324.704 217.977 324.753C217.941 325.163 218.346 326.504 218.662 326.767C219.476 327.446 220.245 327.618 221.08 327.804C221.608 327.922 222.161 328.046 222.769 328.308C226.851 330.065 230.474 330.156 233.156 326.164C233.335 325.898 233.54 325.564 233.756 325.213C234.807 323.502 236.099 321.399 235.718 324.91C235.345 328.336 236.156 329.368 239.255 331.044C240.436 331.682 241.648 332.163 242.856 332.643C244.406 333.257 245.949 333.87 247.411 334.808C248.686 335.627 250.113 336.197 251.541 336.767C252.959 337.333 254.378 337.9 255.654 338.712C255.863 338.845 256.064 339.118 256.252 339.374C256.438 339.626 256.611 339.861 256.769 339.932C257.264 340.152 258.174 340.102 258.924 340.061C259.26 340.043 259.564 340.026 259.784 340.036C260.388 340.064 261.008 340.11 261.638 340.157C263.833 340.321 266.138 340.493 268.201 339.914C268.667 339.783 269.083 339.488 269.495 339.197C269.949 338.875 270.398 338.557 270.902 338.468C272.591 338.17 273.858 339.062 275.133 339.96C276.228 340.732 277.33 341.507 278.709 341.535C279.846 341.557 280.98 341.552 282.114 341.547C284.274 341.537 286.43 341.528 288.59 341.709C295.087 342.255 301.612 342.992 308.057 344.02C277.938 344.583 222.163 345.2 210.408 343.576C214.911 359.035 181.14 358.735 165.081 356.784C134.164 367.74 107.899 359.786 97.6929 348.079C86.9684 347.368 68.2676 348.435 50.1138 349.506Z" fill="#EDEFFF"/>
<path fill-rule="evenodd" clip-rule="evenodd" d="M632.37 817.271C630.387 822.402 621.512 817.829 617.624 810.75C614.932 805.857 621.79 778.339 623.205 774.99C624.985 770.779 631.451 773.978 632.442 776.806C634.67 783.196 630.419 811.558 632.37 817.271Z" fill="#FF9C01"/>
<path fill-rule="evenodd" clip-rule="evenodd" d="M548.201 616.329C547.45 609.05 545.672 606.032 547.593 604.527C550.702 602.098 555.83 607.368 559.499 605.052C562.312 603.277 562.231 598.503 559.459 596.261C556.667 594.039 557.229 591.291 554.086 588.845C548.388 584.469 539.861 578.473 536.825 568.773C536.612 571.738 536.537 574.706 536.636 577.7C537.01 589.616 540.011 601.999 548.201 616.329Z" fill="#4349EC"/>
<path fill-rule="evenodd" clip-rule="evenodd" d="M557.861 613.223C563.169 615.789 565.356 619.792 568.384 629.726C573.036 644.951 564.792 659.699 564.83 675.397C564.845 681.855 565.051 693.447 573.059 698.596C537.058 686.985 559.399 647.019 527.235 645.061L557.861 613.223Z" fill="url(#paint0_linear_1046:88)"/>
<path fill-rule="evenodd" clip-rule="evenodd" d="M537.88 563.667C541.389 590.608 581.224 613.936 569.863 637.795C567.518 642.744 558.458 643.025 555.583 639.896C553.025 637.119 547.328 639.025 548.557 642.539C548.239 646.556 545.426 646.992 543.422 649.315C538.845 654.644 531.277 653.255 524.721 648.094C510.093 636.605 501.529 617.013 498.414 586.174C505.576 551.384 520.364 546.433 537.88 563.667Z" fill="#5A60F3"/>
<path fill-rule="evenodd" clip-rule="evenodd" d="M531.295 560.215C524.505 562.107 517.314 565.439 509.761 570.089C514.907 590.366 523.83 602.749 536.506 607.287C546.236 610.748 549.802 614.753 563.883 609.064C554.226 593.233 539.598 578.385 537.72 565.12C535.741 563.188 533.225 561.578 531.295 560.215Z" fill="url(#paint1_linear_1046:88)"/>
<path fill-rule="evenodd" clip-rule="evenodd" d="M536.657 630.411C546.993 626.586 551.449 639.439 554.763 651.085C562.267 656.127 565.399 661.602 561.134 664.936C557.659 667.643 547.854 661.551 544.281 656.47C531.758 654.088 518.773 648.223 512.062 633.527L536.657 630.411Z" fill="#5A60F3"/>
<path fill-rule="evenodd" clip-rule="evenodd" d="M536.657 630.411C546.993 626.586 551.449 639.439 554.763 651.085C562.267 656.127 565.399 661.602 561.134 664.936C557.659 667.643 547.854 661.551 544.281 656.47C531.758 654.088 518.773 648.223 512.062 633.527L536.657 630.411Z" fill="url(#paint2_linear_1046:88)"/>
<path fill-rule="evenodd" clip-rule="evenodd" d="M677.138 896.186C674.374 889.422 673.544 882.94 676.57 877.843C681.187 870.066 681.97 864.489 680.71 859.791C679.407 854.931 675.799 850.48 670.379 845.228C668.37 843.281 666.141 841.253 663.761 839.088C653.492 829.747 640.407 817.843 630.025 798.817C568.889 686.777 533.204 577.006 481.88 419.129C473.674 393.886 465.068 367.414 455.895 339.506L460.645 337.944C469.829 365.884 478.44 392.373 486.648 417.618C537.988 575.536 573.516 684.819 634.414 796.422C644.353 814.637 656.7 825.883 666.941 835.212C669.388 837.44 671.714 839.559 673.858 841.637C679.338 846.947 683.855 852.214 685.539 858.496C687.267 864.937 685.9 871.923 680.869 880.396C679.071 883.425 679.184 887.974 681.767 894.294C684.312 900.524 689.025 907.882 695.36 915.978C708.011 932.145 726.739 950.766 746.166 968.459C765.573 986.133 785.591 1002.8 800.764 1015.06C808.349 1021.18 814.719 1026.2 819.192 1029.69C821.428 1031.44 823.19 1032.8 824.392 1033.72C824.992 1034.18 825.453 1034.54 825.763 1034.77C825.918 1034.89 826.036 1034.98 826.114 1035.04L826.203 1035.11L826.23 1035.13C826.231 1035.13 826.231 1035.13 824.719 1037.12C823.208 1039.11 823.207 1039.11 823.205 1039.11L823.199 1039.1L823.085 1039.02C823.005 1038.96 822.885 1038.87 822.728 1038.75C822.414 1038.51 821.949 1038.15 821.344 1037.68C820.134 1036.75 818.363 1035.39 816.117 1033.64C811.626 1030.13 805.233 1025.09 797.622 1018.95C782.405 1006.66 762.305 989.919 742.8 972.156C723.315 954.411 704.337 935.564 691.422 919.059C684.974 910.819 679.939 903.039 677.138 896.186Z" fill="url(#paint3_linear_1046:88)"/>
<g opacity="0.5" filter="url(#filter0_f_1046:88)">
<ellipse cx="575.456" cy="316.823" rx="181.782" ry="170.842" fill="#EAEAEA"/>
</g>
<path d="M585.605 267.125L613.549 336.048L529.665 333.216L585.605 267.125Z" fill="#9C8CFF"/>
<path d="M663.141 170.467L619.162 223.976L588.254 202.556L663.141 170.467Z" fill="#C4BAFF"/>
<path d="M663.141 170.467L619.162 223.976L667.177 247.443L663.141 170.467Z" fill="#B8ACFF"/>
<path d="M532.118 163.638L585.527 267.263L507.797 272.119L532.118 163.638Z" fill="#9484F5"/>
<path d="M532.118 163.638L585.527 267.263L619.15 223.849L532.118 163.638Z" fill="#CEC6FF"/>
<path d="M585.743 267.053L508.365 272.318L529.458 333.61L585.743 267.053Z" fill="#CEC6FF"/>
<path d="M529.889 333.374L508.363 272.376L495.026 345.847C508.641 340.976 516.274 338.245 529.889 333.374Z" fill="#9C8CFF"/>
<path d="M585.605 267.125L613.548 336.048L694.818 260.505L585.605 267.125Z" fill="#AFA2FF"/>
<path d="M585.605 267.125L619.15 223.849L694.818 260.505L585.605 267.125Z" fill="#C5BBFF"/>
<path d="M682.317 292.431L663.511 342.326L745.197 344.84L682.317 292.431Z" fill="#9484F5"/>
<path d="M664.394 339.77L613.549 336.048L694.818 260.505L664.394 339.77Z" fill="#9C8CFF"/>
<path d="M660.683 383.424L664.005 339.989L745.18 344.814L660.683 383.424Z" fill="#816FEF"/>
<path d="M664.394 339.77L613.549 336.048L657.345 443.316L664.394 339.77Z" fill="#B8ACFF"/>
<path d="M554.808 380.682L613.549 336.048L657.385 443.18L554.808 380.682Z" fill="#CEC6FF"/>
<path d="M554.808 380.682L574.491 416.334L657.483 443.094L554.808 380.682Z" fill="#9C8CFF"/>
<path d="M554.808 380.682L574.491 416.334L472.483 459.064L554.808 380.682Z" fill="#AD9FFF"/>
<path d="M554.808 380.682L494.648 345.949L472.483 459.064L554.808 380.682Z" fill="#CEC6FF"/>
<path d="M470.128 355.76L494.648 345.949L472.243 458.926L470.128 355.76Z" fill="#AD9FFF"/>
<path d="M470.128 355.76L494.647 345.949L396.925 282.178L470.128 355.76Z" fill="#9D8FF1"/>
<path d="M508.363 272.376L494.95 346.282L396.925 282.178L508.363 272.376Z" fill="#AD9FFF"/>
<path d="M508.363 272.376L498.601 236.7L396.925 282.178L508.363 272.376Z" fill="#CEC6FF"/>
<path d="M508.363 272.376L498.601 236.7L531.798 167.024L508.363 272.376Z" fill="#AD9FFF"/>
<path d="M480.915 184.305L498.601 236.7L518.318 195.354L480.915 184.305Z" fill="#B8ACFF"/>
<path d="M480.915 184.305L498.601 236.699L478.342 245.775L480.915 184.305Z" fill="#C4BAFF"/>
<path d="M470.367 355.899L470.93 383.707L442.398 369.471L470.367 355.899Z" fill="#C4BAFF"/>
<path d="M470.368 355.899L455.159 340.727L442.398 369.471L470.368 355.899Z" fill="#B8ACFF"/>
<path d="M603.306 467.164L574.491 416.333L624.616 430.253L603.306 467.164Z" fill="#AD9FFF"/>
<path d="M603.306 467.165L574.491 416.334L549.743 426.675L603.306 467.165Z" fill="#816FEF"/>
<path d="M554.808 380.682L613.549 336.047L529.753 333.3L554.808 380.682Z" fill="#B8ACFF"/>
<path d="M554.808 380.682L494.648 345.948L529.753 333.3L554.808 380.682Z" fill="#816FEF"/>
<g opacity="0.4" filter="url(#filter1_f_1046:88)">
<ellipse cx="575.453" cy="316.979" rx="119.5" ry="112" fill="#EAEAEA"/>
</g>
<path fill-rule="evenodd" clip-rule="evenodd" d="M570.96 622.747C574.657 635.417 573.328 655.676 566.472 660.969C567.025 666.05 564.769 672.951 560.766 672.58C555.774 672.114 555.916 662.39 556.353 658.824C553.653 653.021 547.72 634.619 558.72 625.119L570.96 622.747Z" fill="#5A60F3"/>
<path fill-rule="evenodd" clip-rule="evenodd" d="M499.98 533.461C499.599 525.126 512.93 524.295 514.322 534.237L499.98 533.461Z" fill="#5A60F3"/>
<path fill-rule="evenodd" clip-rule="evenodd" d="M512.519 578.996C535.912 584.446 544.973 563.459 545.756 558.261C546.707 551.968 544.808 537.726 531.362 537.758C525.829 537.759 521.173 532.589 515.395 531.737C493.445 528.411 486.519 542.803 483.342 551.374C482.183 554.504 479.128 565.136 483.647 571.732C491.853 583.754 511.558 602.194 529.672 610.607L512.519 578.996Z" fill="#5A60F3"/>
<path d="M518.348 573.785C518.903 573.424 519.16 572.837 518.924 572.474C518.687 572.111 518.046 572.11 517.492 572.471C516.937 572.832 516.679 573.42 516.916 573.783C517.152 574.145 517.794 574.146 518.348 573.785Z" fill="#16164F"/>
<path d="M537.232 539.88C537.302 540.404 537.081 540.865 536.738 540.911C536.395 540.957 536.06 540.569 535.991 540.045C535.921 539.522 536.142 539.06 536.485 539.014C536.828 538.968 537.162 539.356 537.232 539.88Z" fill="#16164F"/>
<path d="M524.081 574.846C524.635 574.484 524.893 573.897 524.656 573.534C524.42 573.171 523.778 573.17 523.224 573.532C522.67 573.893 522.412 574.48 522.648 574.843C522.885 575.206 523.526 575.207 524.081 574.846Z" fill="#16164F"/>
<path d="M540.851 542.797C540.921 543.321 540.7 543.782 540.357 543.828C540.014 543.874 539.68 543.486 539.61 542.962C539.54 542.439 539.761 541.977 540.104 541.931C540.447 541.885 540.781 542.273 540.851 542.797Z" fill="#16164F"/>
<path d="M525.876 569.419C526.43 569.058 526.688 568.471 526.451 568.108C526.215 567.745 525.574 567.744 525.019 568.105C524.465 568.467 524.207 569.054 524.444 569.417C524.68 569.78 525.322 569.781 525.876 569.419Z" fill="#16164F"/>
<path d="M538.501 546.714C538.571 547.238 538.349 547.699 538.006 547.745C537.664 547.791 537.329 547.403 537.259 546.879C537.189 546.356 537.411 545.894 537.753 545.848C538.096 545.802 538.431 546.19 538.501 546.714Z" fill="#16164F"/>
<path fill-rule="evenodd" clip-rule="evenodd" d="M528.801 551.986C527.784 553.975 527.356 556.733 528.797 557.47C529.523 557.841 530.862 557.482 532.091 557.155C533.297 556.84 534.399 556.559 534.903 555.573C535.92 553.583 534.917 549.805 533.476 549.069C532.036 548.332 529.819 549.996 528.801 551.986Z" fill="#16164F"/>
<path d="M495.783 565.037C497.916 568.98 496.419 573.921 492.441 576.073C488.463 578.224 483.51 576.771 481.377 572.827C479.244 568.883 480.74 563.943 484.718 561.791C488.696 559.64 493.65 561.093 495.783 565.037Z" fill="#5A60F3"/>
<path fill-rule="evenodd" clip-rule="evenodd" d="M535.294 577.495C540.373 574.34 545.398 576.193 546.789 580.769C548.194 585.391 548.569 589.654 544.44 592.219C540.311 594.783 534.91 593.567 532.386 589.503C529.863 585.44 529.504 581.092 535.294 577.495Z" fill="#4349EC"/>
<path fill-rule="evenodd" clip-rule="evenodd" d="M527.077 618.145C521.108 621.404 514.743 611.865 516.72 602.119C518.082 595.378 535.567 578.454 539.585 576.419C544.608 573.876 548.276 581.086 548.121 584.78C547.718 595.058 529.788 611.223 527.077 618.145Z" fill="#4349EC"/>
<path d="M516.363 561.069C516.706 559.811 515.964 558.512 514.705 558.169C513.446 557.826 512.147 558.568 511.804 559.827C511.461 561.086 512.204 562.385 513.463 562.728C514.721 563.071 516.02 562.328 516.363 561.069Z" fill="#16164F"/>
<path d="M527.048 540.906C527.391 539.647 526.649 538.349 525.39 538.006C524.131 537.663 522.833 538.405 522.49 539.664C522.147 540.923 522.889 542.221 524.148 542.564C525.407 542.907 526.705 542.165 527.048 540.906Z" fill="#16164F"/>
<path fill-rule="evenodd" clip-rule="evenodd" d="M554.186 589.119C560.224 593.195 564.642 600.026 563.22 605.619C563.22 605.619 552.317 630.069 546.205 623.619C543.879 621.165 540.343 616.336 541.22 612.119C541.842 609.12 544.72 608.619 546.204 607.81C550.072 599.299 554.186 589.119 554.186 589.119Z" fill="#4349EC"/>
<path fill-rule="evenodd" clip-rule="evenodd" d="M632.831 825.718C637.074 827.938 638.746 831.243 640.948 839.384C644.332 851.861 637.261 863.619 636.887 876.361C636.733 881.604 636.602 891.018 642.969 895.403C614.048 885.052 633.21 853.189 607.154 850.771L632.831 825.718Z" fill="url(#paint4_linear_1046:88)"/>
<path fill-rule="evenodd" clip-rule="evenodd" d="M619.609 791.956C627.223 807.592 651.77 826.886 641.934 845.959C639.904 849.915 630.217 852.719 627.964 850.105C625.975 847.779 620.769 850.458 621.676 853.341C621.315 856.594 621.863 852.794 620.177 854.628C616.325 858.836 614.008 866.965 608.82 862.607C597.243 852.905 587.005 827.332 585.271 802.221C591.979 774.167 605.836 777.517 619.609 791.956Z" fill="#F5B523"/>
<path fill-rule="evenodd" clip-rule="evenodd" d="M614.132 843.702C623.071 844.133 624.087 856.445 623.221 864.976C627.224 871.131 627.822 876.218 623.575 877.353C620.117 878.27 614.729 870.598 613.676 865.665C605.077 859.901 597.241 851.389 596.903 838.273L614.132 843.702Z" fill="#F5B523"/>
<path fill-rule="evenodd" clip-rule="evenodd" d="M643.4 833.776C646.075 844.154 644.475 860.564 638.774 864.684C639.092 868.822 637.083 874.365 633.844 873.961C629.803 873.455 630.169 865.566 630.615 862.682C628.574 857.903 626.76 850.638 629.316 844.259L643.4 833.776Z" fill="#F5B523"/>
<path fill-rule="evenodd" clip-rule="evenodd" d="M578.716 803.009C582.795 798.994 588.05 795.278 594.38 791.841C606.575 803.667 611.685 814.96 609.753 825.721C608.254 833.972 607.079 839.422 597.377 847.035C590.137 833.832 588.42 815.821 579.84 809.133C579.28 806.958 578.895 804.92 578.716 803.009Z" fill="url(#paint5_linear_1046:88)"/>
<path fill-rule="evenodd" clip-rule="evenodd" d="M602.828 792.836C607.553 811.76 590.628 819.386 586.418 820.089C581.32 820.942 569.732 819.582 569.585 808.665C569.515 804.171 565.258 800.457 564.492 795.777C561.51 777.997 573.107 772.188 580.026 769.499C582.552 768.518 591.146 765.901 596.56 769.486C606.426 775.995 621.651 791.758 628.715 806.358L602.828 792.836Z" fill="#F5B523"/>
<path fill-rule="evenodd" clip-rule="evenodd" d="M565.701 783.23C558.928 783.028 558.424 793.862 566.514 794.865L565.701 783.23Z" fill="#F5B523"/>
<path d="M598.681 797.63C598.395 798.085 597.922 798.302 597.624 798.114C597.326 797.927 597.317 797.406 597.603 796.952C597.89 796.497 598.363 796.28 598.661 796.467C598.958 796.655 598.968 797.175 598.681 797.63Z" fill="#16164F"/>
<path d="M571.377 813.395C571.803 813.445 572.175 813.259 572.208 812.98C572.241 812.701 571.922 812.435 571.495 812.385C571.069 812.335 570.697 812.52 570.664 812.799C570.631 813.078 570.951 813.345 571.377 813.395Z" fill="#16164F"/>
<path d="M599.61 802.257C599.323 802.712 598.85 802.928 598.552 802.741C598.255 802.553 598.245 802.033 598.532 801.578C598.818 801.123 599.292 800.906 599.589 801.094C599.887 801.281 599.896 801.802 599.61 802.257Z" fill="#16164F"/>
<path d="M573.791 816.296C574.217 816.346 574.589 816.16 574.622 815.881C574.655 815.602 574.336 815.335 573.909 815.285C573.483 815.235 573.111 815.421 573.078 815.7C573.045 815.979 573.365 816.246 573.791 816.296Z" fill="#16164F"/>
<path d="M595.237 803.793C594.951 804.248 594.477 804.464 594.18 804.277C593.882 804.09 593.873 803.569 594.159 803.114C594.445 802.659 594.919 802.442 595.216 802.63C595.514 802.817 595.523 803.338 595.237 803.793Z" fill="#16164F"/>
<path d="M576.949 814.337C577.375 814.387 577.747 814.201 577.78 813.922C577.812 813.643 577.493 813.376 577.067 813.326C576.641 813.276 576.269 813.462 576.236 813.741C576.203 814.02 576.522 814.287 576.949 814.337Z" fill="#16164F"/>
<path fill-rule="evenodd" clip-rule="evenodd" d="M581.106 806.405C582.708 805.553 584.942 805.17 585.558 806.331C585.869 806.915 585.595 808.008 585.345 809.009C585.104 809.993 584.89 810.891 584.096 811.313C582.494 812.164 579.414 811.398 578.797 810.238C578.18 809.078 579.503 807.256 581.106 806.405Z" fill="#16164F"/>
<path d="M591.332 779.4C594.562 781.082 598.554 779.804 600.25 776.546C601.946 773.288 600.702 769.285 597.473 767.603C594.243 765.922 590.251 767.2 588.555 770.458C586.859 773.716 588.103 777.719 591.332 779.4Z" fill="#F5B523"/>
<path fill-rule="evenodd" clip-rule="evenodd" d="M619.936 776.924C617.439 781.088 619.008 785.144 622.742 786.215C626.513 787.297 629.979 787.546 632.008 784.161C634.038 780.776 632.98 776.406 629.649 774.409C626.318 772.412 622.782 772.176 619.936 776.924Z" fill="#FF9C01"/>
<path fill-rule="evenodd" clip-rule="evenodd" d="M635.965 807.866C633.469 812.03 635.037 816.086 638.771 817.157C642.542 818.239 646.008 818.488 648.038 815.103C650.067 811.717 649.01 807.348 645.679 805.351C642.347 803.353 638.811 803.118 635.965 807.866Z" fill="#FF9C01"/>
<path d="M588.333 796.177C587.316 796.472 586.252 795.886 585.957 794.868C585.663 793.851 586.249 792.787 587.266 792.492C588.284 792.197 589.348 792.783 589.643 793.801C589.937 794.819 589.351 795.883 588.333 796.177Z" fill="#16164F"/>
<path d="M572.099 805.112C571.082 805.407 570.018 804.821 569.723 803.803C569.429 802.786 570.015 801.722 571.032 801.427C572.05 801.132 573.114 801.719 573.409 802.736C573.703 803.754 573.117 804.818 572.099 805.112Z" fill="#16164F"/>
<path fill-rule="evenodd" clip-rule="evenodd" d="M610.348 828.126C604.849 827.985 606.17 818.088 611.527 812.045C615.23 807.863 642.426 806.654 646.056 806.86C650.621 807.119 649.171 816.042 646.842 817.926C641.596 822.175 615.072 824.366 610.348 828.126Z" fill="#FF9C01"/>
<path fill-rule="evenodd" clip-rule="evenodd" d="M670.993 244.734C671.758 245.531 671.732 246.797 670.936 247.562C633.287 283.725 602.282 306.176 569.111 320.52C535.945 334.861 500.757 341.033 454.865 344.852C453.764 344.944 452.798 344.126 452.706 343.025C452.614 341.924 453.432 340.957 454.533 340.866C500.262 337.06 534.946 330.935 567.523 316.848C600.095 302.764 630.705 280.659 668.165 244.677C668.962 243.912 670.228 243.938 670.993 244.734Z" fill="white"/>
<path fill-rule="evenodd" clip-rule="evenodd" d="M684.407 292.267C685.029 293.18 684.793 294.425 683.879 295.046C640.667 324.458 606.293 339.027 571.141 345.219C536.05 351.4 500.314 349.204 454.53 345.32C453.43 345.227 452.613 344.259 452.706 343.158C452.8 342.058 453.768 341.241 454.868 341.335C500.693 345.222 535.937 347.358 570.447 341.279C604.898 335.211 638.747 320.926 681.629 291.739C682.542 291.118 683.786 291.354 684.407 292.267Z" fill="white"/>
<path d="M344.375 672.45L346.21 677.116L340.398 694.067L230.577 646.132L258.411 634.355L293.514 632.693L323.785 650.421L344.375 672.45Z" fill="#8477D7"/>
<path d="M310.386 648.282L336.972 687.886L211.059 671.568L237.679 635.877L310.386 648.282Z" fill="#574B9D"/>
<path d="M310.386 648.282L307.771 682.421L211.059 671.568L237.68 635.877L310.386 648.282Z" fill="#6455BD"/>
<path d="M379.11 667.423L434.505 682.81L441.091 698.185L417.962 713.399L379.11 667.423Z" fill="#8477D7"/>
<path d="M400.177 696.475L425.725 689.167L435.159 702.038L417.962 713.398L400.177 696.475Z" fill="#C4BBFB"/>
<path d="M389.814 657.951L425.556 689.121L397.335 675.934L388.75 660.569L389.814 657.951Z" fill="#574B9D"/>
<path d="M379.11 667.423L314.512 680.962L334.342 715.308L425.724 689.168L379.11 667.423Z" fill="#A79BEE"/>
<path d="M142.065 633.121L177.238 667.768L154.978 664.162L148.521 648.641L142.065 633.121Z" fill="#7F72D1"/>
<path d="M212.144 642.463L177.237 667.768L154.977 664.163L168.681 638.076L212.144 642.463Z" fill="#574B9D"/>
<path d="M212.144 642.463L246.92 688.073L195.013 682.693L168.681 638.076L212.144 642.463Z" fill="#A79BEE"/>
<path d="M119.721 793.711L97.7118 787.814L125.255 773.057L119.721 793.711Z" fill="#B4A9F8"/>
<path d="M322.793 686.628L342.802 712.857L200.2 670.11L322.793 686.628Z" fill="#B4A9F8"/>
<path d="M293.425 726.481L342.803 712.857L200.2 670.11L293.425 726.481Z" fill="#7869D6"/>
<path d="M119.721 793.711L322.793 686.628L186.371 668.219L167.082 672.487L146.884 700.463L127.561 752.262L119.721 793.711Z" fill="#C4BBFB"/>
<path d="M297.15 651.63L322.794 686.627L200.2 670.11L225.901 638.527L297.15 651.63Z" fill="#B4A9F8"/>
<defs>
<filter id="filter0_f_1046:88" x="277.869" y="30.177" width="595.173" height="573.292" filterUnits="userSpaceOnUse" color-interpolation-filters="sRGB">
<feFlood flood-opacity="0" result="BackgroundImageFix"/>
<feBlend mode="normal" in="SourceGraphic" in2="BackgroundImageFix" result="shape"/>
<feGaussianBlur stdDeviation="57.9022" result="effect1_foregroundBlur_1046:88"/>
</filter>
<filter id="filter1_f_1046:88" x="340.149" y="89.175" width="470.609" height="455.609" filterUnits="userSpaceOnUse" color-interpolation-filters="sRGB">
<feFlood flood-opacity="0" result="BackgroundImageFix"/>
<feBlend mode="normal" in="SourceGraphic" in2="BackgroundImageFix" result="shape"/>
<feGaussianBlur stdDeviation="57.9022" result="effect1_foregroundBlur_1046:88"/>
</filter>
<linearGradient id="paint0_linear_1046:88" x1="561.22" y1="683.62" x2="550.22" y2="642.12" gradientUnits="userSpaceOnUse">
<stop stop-color="#484FF2"/>
<stop offset="1" stop-color="#0008C8"/>
</linearGradient>
<linearGradient id="paint1_linear_1046:88" x1="526.22" y1="574.12" x2="515.72" y2="588.12" gradientUnits="userSpaceOnUse">
<stop stop-color="#5055ED"/>
<stop offset="1" stop-color="#5055ED" stop-opacity="0"/>
</linearGradient>
<linearGradient id="paint2_linear_1046:88" x1="555.72" y1="661.12" x2="541.22" y2="654.12" gradientUnits="userSpaceOnUse">
<stop stop-color="#4349EC"/>
<stop offset="1" stop-color="#5A60F3"/>
</linearGradient>
<linearGradient id="paint3_linear_1046:88" x1="545.719" y1="390.62" x2="914.719" y2="1148.62" gradientUnits="userSpaceOnUse">
<stop stop-color="white"/>
<stop offset="1" stop-color="white" stop-opacity="0"/>
</linearGradient>
<linearGradient id="paint4_linear_1046:88" x1="615.22" y1="855.12" x2="639.22" y2="909.12" gradientUnits="userSpaceOnUse">
<stop stop-color="#FF9C01"/>
<stop offset="1" stop-color="#F5B523"/>
</linearGradient>
<linearGradient id="paint5_linear_1046:88" x1="583.72" y1="821.119" x2="602.22" y2="824.119" gradientUnits="userSpaceOnUse">
<stop stop-color="#FF9C01"/>
<stop offset="1" stop-color="#FF9C01" stop-opacity="0"/>
</linearGradient>
</defs>
</svg>
