<svg width="922" height="820" viewBox="0 0 922 820" fill="none" xmlns="http://www.w3.org/2000/svg">
<path d="M868.122 122.128C868.122 122.128 779.677 65.0361 721.492 58.0282C554.784 37.9497 841.303 448.897 675.344 433.691C604.544 427.204 569.435 358.009 498.17 348.317C315.513 323.475 388.851 736 388.851 736" stroke="url(#paint0_radial_1519_292)" stroke-width="2.06401"/>
<path d="M872.761 139.255C872.761 139.255 784.316 82.1628 726.131 75.1549C559.423 55.0764 845.942 466.024 679.984 450.818C609.183 444.331 574.074 375.136 502.809 365.444C320.152 340.601 393.49 753.127 393.49 753.127" stroke="url(#paint1_radial_1519_292)" stroke-width="2.06401"/>
<path d="M844.314 92.5516C844.314 92.5516 755.869 35.4594 697.684 28.4515C530.976 8.37303 817.495 419.32 651.536 404.115C580.735 397.628 545.627 328.433 474.362 318.74C291.705 293.898 365.043 706.424 365.043 706.424" stroke="url(#paint2_radial_1519_292)" stroke-width="2.06401"/>
<path d="M848.503 108.014C848.503 108.014 760.058 50.9218 701.872 43.9139C535.165 23.8354 821.684 434.783 655.725 419.577C584.924 413.09 549.816 343.895 478.551 334.203C295.894 309.36 369.232 721.886 369.232 721.886" stroke="url(#paint3_radial_1519_292)" stroke-width="2.06401"/>
<path d="M901.929 188.616C901.929 188.616 813.484 131.524 755.299 124.516C588.591 104.437 875.11 515.385 709.152 500.179C638.351 493.692 603.242 424.497 531.977 414.805C349.32 389.962 422.658 802.488 422.658 802.488" stroke="url(#paint4_radial_1519_292)" stroke-width="2.06401"/>
<path d="M906.569 205.742C906.569 205.742 818.124 148.649 759.938 141.641C593.231 121.563 879.75 532.51 713.791 517.305C642.99 510.818 607.882 441.623 536.617 431.93C353.96 407.088 427.298 819.614 427.298 819.614" stroke="url(#paint5_radial_1519_292)" stroke-width="2.06401"/>
<path d="M878.121 159.038C878.121 159.038 789.676 101.946 731.491 94.9381C564.783 74.8596 851.302 485.807 685.343 470.601C614.543 464.114 579.434 394.919 508.169 385.227C325.512 360.385 398.85 772.91 398.85 772.91" stroke="url(#paint6_radial_1519_292)" stroke-width="2.06401"/>
<path d="M882.311 174.501C882.311 174.501 793.866 117.409 735.681 110.401C568.973 90.3227 855.493 501.27 689.534 486.064C618.733 479.577 583.624 410.383 512.359 400.69C329.702 375.848 403.041 788.373 403.041 788.373" stroke="url(#paint7_radial_1519_292)" stroke-width="2.06401"/>
<path d="M731.183 658.386L550.008 580.135L341.022 595.964L514.851 682.43L731.183 658.386Z" fill="#D1CAFF"/>
<path d="M724.184 711.166L730.948 657.686L514.706 682.418V741.609L724.184 711.166Z" fill="#BAB2EA"/>
<path d="M514.705 742.712V682.431L342.193 595.974V656.572L514.705 742.712Z" fill="#DAD3FF"/>
<path fill-rule="evenodd" clip-rule="evenodd" d="M640.473 643.273L623.668 643.292L638.113 638.747L640.473 643.273Z" fill="#E4E5FD"/>
<path fill-rule="evenodd" clip-rule="evenodd" d="M525.582 503.094C531.76 498.747 538.184 508.399 531.225 514.293L525.582 503.094Z" fill="#F5B523"/>
<path fill-rule="evenodd" clip-rule="evenodd" d="M521.714 540.892C523.37 548.375 528.345 557.241 533.249 563.362C538.972 570.451 545.667 572.85 542.671 577.511C539.471 582.436 531.07 576.79 527.422 573.726C522.577 569.653 520.179 560.18 516.916 552.008L521.714 540.892Z" fill="#FDA71A"/>
<path fill-rule="evenodd" clip-rule="evenodd" d="M479.351 603.603C486.265 617.18 508.906 614.056 518.846 615.144C534.136 616.813 545.904 611.7 560.593 608.73C566.637 607.508 586.184 610.5 590.389 611.988C575.897 591.583 532.733 611.79 529.156 577.504C515.387 592.067 499.864 599.09 479.351 603.603Z" fill="url(#paint8_linear_1519_292)"/>
<path fill-rule="evenodd" clip-rule="evenodd" d="M523.488 542.992C523.549 555.139 529.641 571.526 531.605 585.535C532.697 593.406 546.631 596.487 539.785 611.536C537.395 616.808 528.173 615.954 523.508 616.083C521.046 616.151 514.46 617.076 512.02 617.437C508.824 617.911 507.529 618.195 504.615 619.561C497.881 622.704 482.798 616.627 479.049 608.195C475.279 599.763 478.22 572.561 479.255 556.284C499.807 520.799 514.101 518.812 523.488 542.992Z" fill="#F5B523"/>
<path fill-rule="evenodd" clip-rule="evenodd" d="M494.999 549.939C496.389 555.882 497.098 552.523 499.02 553.186C502.131 554.255 510.512 541.201 514.119 541.395C518.654 541.64 518.318 548.159 516.724 550.681C512.307 557.706 502.898 576.079 503.305 589.268C502.33 586.988 498.861 577.327 498.123 574.939C495.173 565.444 492.449 563.464 494.999 549.939Z" fill="url(#paint9_linear_1519_292)"/>
<path fill-rule="evenodd" clip-rule="evenodd" d="M478.862 607.706C475.092 599.272 529.459 571.03 531.423 585.042C532.515 592.914 546.451 595.996 539.604 611.048C537.214 616.32 528.684 617.533 522.896 617.54C520.434 617.542 514.277 616.588 511.836 616.95C508.64 617.424 508.207 616.41 505.293 617.777C498.558 620.92 482.611 616.14 478.862 607.706Z" fill="url(#paint10_linear_1519_292)"/>
<path fill-rule="evenodd" clip-rule="evenodd" d="M482.463 550.945C486.2 551.949 491.512 580.978 493.352 584.127C496.708 589.871 499.834 587.076 505.542 591.364C514.297 597.947 515.328 608.796 511.756 617.479C510.508 620.52 508.11 620.151 504.828 620.398C497.422 620.955 482.796 616.628 479.048 608.196C475.278 599.764 478.24 572.562 479.253 556.285C480.352 554.411 481.407 552.631 482.463 550.945Z" fill="#F5B523"/>
<path fill-rule="evenodd" clip-rule="evenodd" d="M523.492 542.995C523.547 550.86 526.09 561.861 528.547 573.322C532.874 593.622 495.472 549.113 496.485 532.837C517.056 497.352 514.107 518.815 523.492 542.995Z" fill="url(#paint11_linear_1519_292)"/>
<path fill-rule="evenodd" clip-rule="evenodd" d="M496.481 532.84C502.774 553.04 522.749 550.567 527.045 548.846C532.247 546.763 542.214 538.971 536.195 528.771C533.726 524.567 535.576 518.726 533.646 513.958C526.385 495.8 512.369 496.954 504.445 498.361C501.551 498.876 492.116 501.295 489.123 507.669C483.654 519.262 479.26 542.004 479.259 556.292L496.481 532.84Z" fill="#F5B523"/>
<path fill-rule="evenodd" clip-rule="evenodd" d="M503.232 544.022C507.591 540.9 511.476 538.712 514.565 539.395C520.356 540.678 521.421 545.497 520.348 549.951C515.272 550.088 508.531 548.928 503.232 544.022Z" fill="#EDA80B"/>
<path fill-rule="evenodd" clip-rule="evenodd" d="M503.232 544.022C507.591 540.9 511.476 538.712 514.565 539.395C520.356 540.678 521.421 545.497 520.348 549.951C515.272 550.088 508.531 548.928 503.232 544.022Z" fill="url(#paint12_radial_1519_292)"/>
<path fill-rule="evenodd" clip-rule="evenodd" d="M496.477 532.843C497.996 537.725 495.28 510.924 497.867 508.196C499.699 506.265 492.113 501.301 489.121 507.674C485.871 514.557 483.014 525.37 481.216 536.01C479.996 543.289 479.251 550.488 479.259 556.292L496.477 532.843Z" fill="url(#paint13_linear_1519_292)"/>
<path d="M503.056 534.963C503.575 535.206 504.136 535.114 504.309 534.756C504.482 534.398 504.201 533.91 503.682 533.667C503.164 533.423 502.603 533.516 502.43 533.874C502.257 534.232 502.537 534.719 503.056 534.963Z" fill="#16164F"/>
<path d="M537.243 534.164C536.877 534.444 536.427 534.472 536.239 534.225C536.051 533.979 536.195 533.552 536.561 533.272C536.928 532.992 537.377 532.964 537.565 533.21C537.753 533.456 537.609 533.883 537.243 534.164Z" fill="#16164F"/>
<path d="M504.806 539.781C505.325 540.024 505.886 539.932 506.059 539.574C506.232 539.216 505.951 538.728 505.432 538.485C504.914 538.241 504.353 538.334 504.18 538.692C504.007 539.05 504.287 539.537 504.806 539.781Z" fill="#16164F"/>
<path d="M536.626 538.213C536.259 538.493 535.81 538.521 535.622 538.274C535.434 538.028 535.578 537.601 535.944 537.321C536.31 537.041 536.76 537.013 536.948 537.259C537.136 537.505 536.992 537.932 536.626 538.213Z" fill="#16164F"/>
<path d="M509.733 538.726C510.252 538.969 510.813 538.876 510.986 538.519C511.159 538.161 510.878 537.673 510.359 537.43C509.84 537.186 509.279 537.279 509.106 537.637C508.933 537.995 509.214 538.482 509.733 538.726Z" fill="#16164F"/>
<path d="M532.603 538.174C532.237 538.455 531.788 538.482 531.6 538.236C531.411 537.99 531.556 537.563 531.922 537.283C532.288 537.002 532.737 536.975 532.926 537.221C533.114 537.467 532.969 537.894 532.603 538.174Z" fill="#16164F"/>
<path fill-rule="evenodd" clip-rule="evenodd" d="M524.251 533.126C522.295 533.227 520.025 534.123 520.117 535.558C520.163 536.282 521.035 537.152 521.832 537.952C522.612 538.74 523.318 539.462 524.287 539.412C526.242 539.31 528.638 536.86 528.547 535.425C528.455 533.99 526.206 533.024 524.251 533.126Z" fill="#16164F"/>
<path fill-rule="evenodd" clip-rule="evenodd" d="M494.124 541.559C495.515 547.502 494.936 550.364 496.859 551.028C499.97 552.096 509.436 541.849 513.042 542.044C517.578 542.288 517.242 548.807 515.647 551.329C511.23 558.354 497.706 568.955 498.114 582.144C497.139 579.864 496.271 577.545 495.533 575.158C492.583 565.663 491.574 555.085 494.124 541.559Z" fill="#F5B523"/>
<path d="M534.15 524.562C534.152 525.576 533.331 526.399 532.317 526.401C531.303 526.402 530.48 525.58 530.478 524.566C530.477 523.552 531.298 522.729 532.312 522.728C533.326 522.727 534.149 523.548 534.15 524.562Z" fill="#16164F"/>
<path d="M511.818 525.082C511.819 526.096 510.998 526.919 509.984 526.92C508.97 526.921 508.147 526.1 508.146 525.086C508.144 524.072 508.965 523.249 509.979 523.248C510.993 523.246 511.816 524.067 511.818 525.082Z" fill="#16164F"/>
<path d="M499.592 513.676C497.532 517.167 493.113 518.417 489.721 516.468C486.329 514.52 485.25 510.11 487.31 506.618C489.37 503.127 493.789 501.877 497.181 503.825C500.573 505.774 501.652 510.184 499.592 513.676Z" fill="#F5B523"/>
<path d="M517.96 612.149C515.467 617.674 511.524 621.356 509.155 620.373C506.785 619.39 506.886 614.114 509.379 608.589C511.873 603.064 515.815 599.382 518.184 600.365C520.554 601.348 520.453 606.624 517.96 612.149Z" fill="#F5B523"/>
<path d="M545.786 610.56C548.772 605.302 549.354 600.056 547.088 598.842C544.822 597.628 540.565 600.906 537.579 606.164C534.594 611.422 534.011 616.668 536.277 617.882C538.544 619.096 542.801 615.818 545.786 610.56Z" fill="#F39C0F"/>
<path d="M545.21 560.107L542.57 559.281L534.582 581.639L537.222 582.465L545.21 560.107Z" fill="#090E81"/>
<path fill-rule="evenodd" clip-rule="evenodd" d="M534.933 584.683L534.596 581.48L537.245 582.345L534.933 584.683Z" fill="white"/>
<path fill-rule="evenodd" clip-rule="evenodd" d="M534.918 584.68L534.716 582.758L536.305 583.278L534.918 584.68Z" fill="#090E81"/>
<path fill-rule="evenodd" clip-rule="evenodd" d="M541.811 571.797C539.754 571.768 539.237 573.512 538.876 576.442C538.683 577.893 538.995 579.442 540.729 578.804L541.811 571.797Z" fill="#FDA71A"/>
<path fill-rule="evenodd" clip-rule="evenodd" d="M537.929 569.619C538.707 571.764 539.469 572.074 540.281 570.288C540.622 568.901 539.946 568.26 538.253 568.352L537.606 569.655" fill="#FDA71A"/>
<path fill-rule="evenodd" clip-rule="evenodd" d="M575.877 612.676L554.732 628.908L589.296 630.813L603.528 613.725L575.877 612.676Z" fill="#F39C0F"/>
<path fill-rule="evenodd" clip-rule="evenodd" d="M581.717 618.07L560.572 634.301L596.432 636.637L609.367 619.118L581.717 618.07Z" fill="#F5B523"/>
<path d="M541.976 531.065C543.586 531.063 544.889 529.756 544.887 528.145C544.884 526.533 543.577 525.229 541.967 525.231C540.357 525.233 539.054 526.54 539.056 528.151C539.059 529.762 540.366 531.067 541.976 531.065Z" fill="white"/>
<path d="M436.606 562.286C433.055 562.29 430.18 565.173 430.185 568.726C430.191 572.278 433.073 575.154 436.624 575.15C440.175 575.146 443.05 572.263 443.044 568.711C443.039 565.159 440.156 562.282 436.606 562.286Z" fill="white"/>
<path d="M458.867 595.381C456.927 595.383 455.356 596.959 455.359 598.901C455.362 600.842 456.937 602.414 458.877 602.412C460.818 602.41 462.388 600.834 462.386 598.893C462.383 596.951 460.807 595.379 458.867 595.381Z" fill="white"/>
<path d="M447.847 534.506C448.722 534.505 449.43 533.795 449.429 532.919C449.428 532.044 448.717 531.335 447.842 531.336C446.967 531.337 446.258 532.047 446.26 532.923C446.261 533.798 446.971 534.507 447.847 534.506Z" fill="white"/>
<path d="M589.296 581.73C590.171 581.729 590.88 581.018 590.879 580.143C590.877 579.267 590.167 578.558 589.291 578.559C588.416 578.56 587.708 579.271 587.709 580.146C587.71 581.022 588.421 581.731 589.296 581.73Z" fill="white"/>
<path d="M571.998 499.251C572.957 499.25 573.734 498.471 573.732 497.512C573.731 496.552 572.952 495.775 571.993 495.776C571.033 495.777 570.256 496.556 570.258 497.516C570.259 498.475 571.038 499.252 571.998 499.251Z" fill="white"/>
<path d="M662.105 492.166C663.78 492.164 665.135 490.804 665.133 489.128C665.131 487.452 663.771 486.095 662.096 486.097C660.422 486.099 659.066 487.459 659.068 489.135C659.071 490.811 660.43 492.168 662.105 492.166Z" fill="white"/>
<path d="M642.411 582.238C644.086 582.236 645.442 580.876 645.439 579.2C645.437 577.524 644.077 576.167 642.402 576.169C640.728 576.171 639.372 577.531 639.375 579.207C639.377 580.883 640.737 582.24 642.411 582.238Z" fill="white"/>
<path d="M574.218 547.735C576.37 547.733 578.111 545.985 578.108 543.832C578.105 541.679 576.358 539.935 574.206 539.938C572.054 539.94 570.313 541.688 570.316 543.841C570.319 545.994 572.066 547.738 574.218 547.735Z" fill="white"/>
<path d="M647.441 566.679C654.692 566.671 660.562 560.784 660.551 553.53C660.541 546.276 654.654 540.402 647.402 540.41C640.151 540.418 634.281 546.306 634.292 553.56C634.303 560.814 640.189 566.688 647.441 566.679Z" fill="white"/>
<path d="M562.987 528.123C569.169 528.116 574.173 523.097 574.165 516.912C574.156 510.727 569.137 505.719 562.955 505.726C556.773 505.734 551.769 510.753 551.778 516.938C551.787 523.122 556.806 528.13 562.987 528.123Z" fill="white"/>
<path d="M621.623 564.734C644.505 564.708 663.028 546.131 662.995 523.243C662.962 500.354 644.385 481.82 621.503 481.846C598.621 481.872 580.098 500.448 580.131 523.337C580.164 546.226 598.741 564.76 621.623 564.734Z" fill="white"/>
<path d="M626.95 496.737L625.703 532.861L617.113 532.87L615.761 496.75L626.95 496.737ZM626.94 539.217L626.955 549.837L615.983 549.849L615.967 539.229L626.94 539.217Z" fill="#F5B523"/>
<path d="M706.861 412.469C707.247 413.144 709.62 413.481 710.256 413.375C713.236 411.129 724.192 403.992 724.258 403.917C724.553 403.578 725.861 399.337 725.492 398.917C724.258 398.406 718.744 399.428 718.132 399.787C716.339 400.837 709.082 410.274 706.861 412.469Z" fill="#715EDC"/>
<path d="M704.331 413.758C704.768 414.526 708.101 416.035 708.816 415.917C712.152 413.376 717.599 410.404 718.077 408.73L711.668 405.809C709.659 406.996 706.816 411.272 704.331 413.758Z" fill="#8273DA"/>
<path d="M716.819 408.182L709.142 414.504L727.975 425.114L749.193 412.833L751.105 404.464L743.751 397.168L716.819 408.182Z" fill="#9D90EF"/>
<path d="M712.89 405.876L705.783 412.729L688.21 406.233L695.9 388.189L708.003 384.893L721.05 386.99L712.89 405.876Z" fill="#9D90EF"/>
<path d="M716.553 408.305L709.168 414.948L751.105 404.464L743.883 397.008L716.553 408.305Z" fill="#B0A5F1"/>
<path d="M712.896 405.861L705.515 412.845L708.003 384.893L721.05 386.99L712.896 405.861Z" fill="#B0A5F1"/>
<path d="M712.081 412.167L708.945 414.883L720.51 436.295L736.91 437.139L741.37 420.552L737.967 416.161L712.081 412.167Z" fill="#B4AAF2"/>
<path d="M708.599 410.079L705.516 412.845L670.73 411.743L665.091 403.6L687.028 395.634L695.277 396.229L708.599 410.079Z" fill="#B4AAF2"/>
<path d="M710.697 413.257L708.931 414.832L720.577 436.267L737.171 437.069L710.697 413.257Z" fill="#C4BBFB"/>
<path d="M707.285 411.316L705.515 412.845L670.729 411.743L665.09 403.6L707.285 411.316Z" fill="#C4BBFB"/>
<path d="M712.895 405.862L704.508 414.016L706.372 410.056L712.895 405.862Z" fill="#6856D2"/>
<path d="M716.623 408.191L707.77 415.647L711.265 414.249L716.623 408.191Z" fill="#6856D2"/>
<path d="M383.298 367.866C370.93 374.05 356.413 395.126 381.687 414.082C371.336 410.721 363.538 414.082 360.984 419.325C357.085 417.443 299.277 417.443 305.058 421.207C310.839 424.971 325.089 421.879 341.894 424.165C358.698 426.45 419.868 426.047 436.672 428.736C453.477 431.424 468.8 425.271 477.27 425.54C484.046 425.755 556.633 424.733 596.382 425.54C601.535 425.181 608.618 423.681 605.123 422.283C597.057 419.056 576.488 417.443 569.094 417.443C563.313 414.082 559.145 411.931 552.961 417.443C547.449 414.216 519.352 416.098 508.731 417.443C504.964 414.082 490.582 409.242 479.961 411.931C481.303 400.235 458.718 397.039 456.3 400.235C457.51 377.649 425.917 376.036 419.868 380.876C419.33 365.012 395.666 361.682 383.298 367.866Z" fill="white"/>
<path fill-rule="evenodd" clip-rule="evenodd" d="M601.614 424.866L598.667 422.436C597.904 422.436 596.367 422.147 594.813 421.855C593.184 421.548 591.535 421.238 590.735 421.253C590.363 421.26 589.742 421.024 589.049 420.761C587.937 420.338 586.641 419.846 585.896 420.177C584.584 421.172 584.621 421.011 584.655 420.867C584.687 420.726 584.716 420.601 583.455 421.608C581.627 423.067 577.862 422.416 574.351 421.809C572.134 421.425 570.017 421.059 568.553 421.253C566.214 421.563 564.905 422.442 563.689 423.259C562.259 424.219 560.958 425.093 558.261 424.852C555.545 424.609 552.793 424.595 550.042 424.58C547.898 424.569 545.754 424.557 543.628 424.438C542.45 424.372 541.233 424.335 539.996 424.297C535.502 424.161 530.748 424.017 526.683 422.436C526.36 422.311 526.059 422.137 525.767 421.969C525.043 421.552 524.372 421.166 523.542 421.608C519.718 423.645 515.709 423.932 511.428 423.679C511.389 423.676 511.261 423.656 511.072 423.626C510.09 423.469 507.478 423.053 507.321 423.575C507.083 424.37 507.266 424.969 507.568 425.421C533.976 425.245 571.574 425.036 596.382 425.54C598.065 425.423 599.955 425.184 601.614 424.866ZM499.802 425.473C498.073 424.867 496.293 424.244 493.402 424.076C492.896 424.047 492.003 424.221 490.987 424.419C488.626 424.879 485.6 425.469 485.202 423.942C485.094 423.528 484.759 423.23 484.482 422.984C484.135 422.674 483.88 422.447 484.285 422.177C484.392 422.106 484.732 422.072 485.061 422.04C485.584 421.988 486.077 421.939 485.544 421.746C485.033 421.561 484.358 421.383 483.629 421.191C482.565 420.91 481.386 420.6 480.437 420.193C479.305 419.708 478.122 419.331 476.939 418.955C475.508 418.499 474.078 418.044 472.741 417.397C472.147 417.111 471.053 416.539 470.963 415.775C470.863 414.927 466.764 412.531 465.843 412.531C461.918 411.636 460.656 412.494 459.346 413.385C458.233 414.142 457.086 414.923 454.242 414.671C453.556 414.61 452.8 414.583 452.01 414.554C449.13 414.448 445.799 414.325 443.785 412.531C442.511 411.396 442.445 410.097 442.379 408.791C442.332 407.872 442.285 406.95 441.818 406.078C441.529 405.538 440.902 405.644 440.259 405.752C439.547 405.871 438.817 405.994 438.505 405.249C438.087 404.252 438.032 402.923 437.982 401.683C437.959 401.127 437.937 400.589 437.884 400.107C437.848 399.789 437.443 400.359 436.986 401.002C436.576 401.578 436.126 402.212 435.863 402.316C435.096 402.621 434.071 402.483 433.063 402.347C432.274 402.24 431.495 402.135 430.86 402.247C426.924 402.937 422.625 402.729 418.66 402.316C418.503 402.299 418.341 402.283 418.177 402.267C416.675 402.119 414.933 401.947 413.656 401.177C411.715 400.007 411.631 397.12 411.565 394.851C411.555 394.51 411.545 394.183 411.53 393.878C411.419 391.67 411.415 389.694 411.53 387.493C411.576 386.603 411.266 384.983 410.723 384.094C410.464 383.67 410.343 385.796 410.343 385.854C410.343 389.459 409.537 394.977 404.959 395.655C404.712 395.692 404.357 395.613 403.983 395.529C403.352 395.388 402.664 395.234 402.336 395.603C402.196 395.76 402.137 396.043 402.075 396.336C402.015 396.617 401.954 396.907 401.819 397.104C399.875 399.942 397.055 400.637 393.846 400.694C393.29 400.703 392.789 400.765 392.325 400.822C390.945 400.991 389.896 401.12 388.721 399.727C387.362 398.116 386.398 396.364 385.395 394.542C385.274 394.322 385.152 394.1 385.029 393.878C384.594 393.093 384.215 392.224 383.832 391.348C383.237 389.985 382.634 388.603 381.802 387.493C380.937 386.34 381.483 392.535 381.526 392.825C381.544 392.953 381.597 393.202 381.665 393.525C381.975 394.993 382.612 398.014 381.94 398.45C381.478 398.751 380.192 397.94 379.655 397.601C379.604 397.569 379.56 397.541 379.524 397.519C379.105 397.26 378.71 396.933 378.312 396.604C377.612 396.024 376.903 395.438 376.038 395.206C375.366 395.026 376.286 396.587 376.65 397.205C376.716 397.317 376.764 397.399 376.78 397.432C377.044 397.974 377.287 398.546 377.532 399.124C378.169 400.625 378.824 402.169 379.921 403.334C381.716 405.241 384.209 408.147 384.252 410.875C384.263 411.585 384.042 412.202 383.816 412.83C383.682 413.202 383.547 413.579 383.458 413.981C383.375 414.357 383.358 414.752 383.341 415.145C383.311 415.85 383.28 416.554 382.872 417.156C381.389 419.339 377.932 419.57 375.095 419.76C374.25 419.816 373.46 419.869 372.794 419.969C371.095 420.223 369.494 420.5 367.948 420.767C362.34 421.737 357.458 422.582 351.302 421.746C350.546 421.643 347.537 422.724 344.197 423.923C343.836 424.053 343.47 424.185 343.103 424.316C351.598 425.297 368.767 425.753 386.387 426.222C406.818 426.765 427.854 427.325 436.672 428.736C447.419 430.455 457.56 428.558 465.69 427.038C470.273 426.18 474.217 425.443 477.27 425.54C479.382 425.607 487.889 425.554 499.802 425.473Z" fill="#EBEDFF"/>
<path d="M656.844 235.635C692.289 238.407 695.756 269.404 698.842 275.404C707.07 271.633 717.697 271.976 725.24 275.404C732.782 278.832 743.961 292.79 756.266 291.86C772.303 290.648 773.76 295.832 788.835 296.66C801.475 297.354 835.46 296.66 835.46 300.945C835.46 303.913 835.46 306.53 829.804 306.773C819.347 307.222 714.623 309.213 696.956 306.773C702.099 324.429 663.528 324.087 645.187 321.858C609.875 334.372 579.876 325.287 568.22 311.916C537.193 309.859 447.715 320.83 458 311.916C468.285 303.002 489.026 316.373 515.596 306.773C542.166 297.174 570.107 297.345 578.164 294.431C575.249 286.546 592.905 274.033 604.733 275.404C595.819 253.291 626.16 233.235 656.844 235.635Z" fill="white"/>
<path fill-rule="evenodd" clip-rule="evenodd" d="M513.877 313.546C515.048 313.275 516.212 312.987 517.37 312.682C519.316 312.168 520.999 311.258 522.7 310.339C523.592 309.857 524.489 309.372 525.431 308.94C525.592 308.866 525.762 308.787 525.937 308.705C527.25 308.091 528.924 307.308 530.268 307.308C531.32 307.308 532.29 307.557 533.265 307.807C534.127 308.029 534.992 308.251 535.921 308.303C538.996 308.474 542.55 308.489 545.474 307.407C546.605 306.989 547.319 306.249 548.041 305.503C548.541 304.985 549.046 304.463 549.694 304.043C550.464 303.545 552.006 304.457 553.301 305.223C553.958 305.612 554.552 305.964 554.949 306.073C557.386 306.748 560.112 306.67 562.662 306.596C562.973 306.587 563.282 306.579 563.587 306.571C565.356 306.528 566.884 306.479 568.205 305.198C568.22 305.183 568.241 305.163 568.269 305.137C568.625 304.8 569.916 303.577 569.339 303.347C567.804 302.733 570.495 302.941 573.211 303.152C574.593 303.259 575.982 303.367 576.823 303.367C581.991 303.367 584.056 307.631 586.105 311.865C587.338 314.41 588.565 316.944 590.457 318.533C592.382 320.15 592.871 316.757 593.341 313.503C593.739 310.745 594.122 308.087 595.353 308.661C596.153 309.034 596.345 307.874 596.524 306.787C596.74 305.486 596.937 304.289 598.14 305.954C598.593 306.582 598.965 307.26 599.337 307.939C599.756 308.701 600.174 309.464 600.707 310.154C602.26 312.163 604.528 312.585 606.906 313.027L606.977 313.04C607.532 313.143 608.086 313.248 608.64 313.353C612.532 314.092 616.424 314.831 620.392 314.831C622.867 314.831 623.64 311.086 623.935 309.019C624.62 304.228 622.994 299.339 621.479 294.781C621.3 294.241 621.122 293.706 620.95 293.176C620.704 292.422 620.123 291.491 619.531 290.543C618.415 288.756 617.262 286.911 618.262 286.091C618.259 286.087 618.259 286.086 618.263 286.09L618.262 286.091C618.409 286.355 628.805 301.861 629.468 301.974C630.627 302.17 629.895 297.47 629.271 293.463C628.871 290.898 628.516 288.617 628.73 288.089C628.944 287.56 628.938 287.638 628.917 287.954C628.883 288.446 628.811 289.513 629.468 289.752C629.89 289.906 630.041 290.275 630.195 290.651C630.301 290.909 630.407 291.169 630.603 291.365C631.525 292.286 632.636 293.053 633.749 293.821C634.746 294.509 635.745 295.198 636.614 296.002C636.831 296.203 637.041 296.423 637.252 296.644C637.701 297.113 638.157 297.59 638.704 297.913C638.991 298.083 639.314 298.154 639.634 298.225C639.965 298.298 640.292 298.37 640.575 298.55C641.302 299.013 642.008 299.139 642.837 299.287C642.943 299.306 643.051 299.326 643.162 299.346C643.684 299.443 643.458 298.762 643.144 297.815C642.614 296.22 641.835 293.871 643.958 293.216C643.995 293.249 644.051 293.304 644.124 293.374C644.8 294.027 646.883 296.041 647.421 295.246C648.227 294.057 647.742 290.956 647.415 288.868C647.317 288.243 647.233 287.709 647.203 287.344C647.117 286.328 647.017 285.308 646.917 284.284C646.571 280.755 646.221 277.192 646.466 273.67C646.495 273.255 647.164 267.614 647.78 270.804C648.753 275.848 649.749 280.478 652.915 284.717C656.596 289.646 661.933 293.458 667.922 295.007C674.783 296.781 680.663 288.864 683.288 283.542C684.157 281.781 684.757 279.877 685.125 277.936C685.102 276.852 685.12 275.772 685.278 274.705C685.454 273.521 685.621 273.446 685.517 274.904C685.445 275.915 685.316 276.931 685.125 277.936C685.135 278.399 685.153 278.862 685.17 279.325C685.231 280.924 685.292 282.525 685.04 284.1C684.996 284.37 684.95 284.645 684.903 284.925C684.404 287.879 683.825 291.308 686.274 293.494C689.022 295.949 692.956 297.276 696.604 297.276C698.194 297.276 699.685 297.227 701.241 296.838C703.559 296.259 704.084 292.39 704.377 290.224C704.409 289.992 704.438 289.78 704.466 289.593C704.558 288.976 704.61 288.002 704.662 287C704.782 284.732 704.909 282.32 705.54 283.582C705.729 283.959 705.663 284.629 705.617 285.092C705.611 285.157 705.605 285.218 705.6 285.274C705.559 285.742 706.021 287.274 706.382 287.575C707.313 288.35 708.191 288.546 709.144 288.759C709.747 288.894 710.379 289.036 711.074 289.334C715.735 291.341 719.873 291.445 722.936 286.886C723.141 286.582 723.375 286.2 723.621 285.8C724.822 283.845 726.298 281.443 725.862 285.453C725.437 289.367 726.363 290.545 729.903 292.459C731.251 293.189 732.635 293.738 734.016 294.285C735.785 294.987 737.548 295.686 739.218 296.759C740.674 297.694 742.303 298.344 743.935 298.996C745.554 299.642 747.175 300.29 748.632 301.217C748.871 301.369 749.1 301.681 749.316 301.973C749.527 302.261 749.726 302.53 749.906 302.61C750.472 302.862 751.511 302.805 752.367 302.758C752.751 302.737 753.098 302.718 753.349 302.73C754.039 302.761 754.748 302.814 755.467 302.868C757.974 303.055 760.606 303.252 762.963 302.59C763.495 302.441 763.971 302.104 764.44 301.771C764.959 301.403 765.472 301.04 766.048 300.938C767.976 300.598 769.424 301.617 770.879 302.643C772.131 303.524 773.389 304.41 774.965 304.441C776.262 304.467 777.558 304.461 778.854 304.455C781.32 304.444 783.783 304.433 786.25 304.64C793.67 305.264 801.123 306.106 808.484 307.28C774.084 307.922 710.382 308.627 696.956 306.773C702.098 324.429 663.528 324.086 645.186 321.858C609.874 334.371 579.876 325.286 568.22 311.916C555.971 311.104 534.612 312.322 513.877 313.546Z" fill="#EDEFFF"/>
<path d="M348.534 464.637C350.294 464.637 351.838 464.981 353.166 465.669C354.51 466.357 355.542 467.341 356.262 468.621C356.998 469.885 357.366 471.357 357.366 473.037C357.366 474.717 356.998 476.189 356.262 477.453C355.542 478.701 354.51 479.669 353.166 480.357C351.838 481.045 350.294 481.389 348.534 481.389H342.678V464.637H348.534ZM348.414 478.533C350.174 478.533 351.534 478.053 352.494 477.093C353.454 476.133 353.934 474.781 353.934 473.037C353.934 471.293 353.454 469.933 352.494 468.957C351.534 467.965 350.174 467.469 348.414 467.469H346.038V478.533H348.414ZM368.522 481.389L364.826 474.861H363.242V481.389H359.882V464.637H366.17C367.466 464.637 368.57 464.869 369.482 465.333C370.394 465.781 371.074 466.397 371.522 467.181C371.986 467.949 372.218 468.813 372.218 469.773C372.218 470.877 371.898 471.877 371.258 472.773C370.618 473.653 369.666 474.261 368.402 474.597L372.41 481.389H368.522ZM363.242 472.341H366.05C366.962 472.341 367.642 472.125 368.09 471.693C368.538 471.245 368.762 470.629 368.762 469.845C368.762 469.077 368.538 468.485 368.09 468.069C367.642 467.637 366.962 467.421 366.05 467.421H363.242V472.341ZM378.617 467.349V471.549H384.257V474.213H378.617V478.653H384.977V481.389H375.257V464.613H384.977V467.349H378.617ZM398.302 478.197H391.63L390.526 481.389H386.998L393.022 464.613H396.934L402.958 481.389H399.406L398.302 478.197ZM397.39 475.509L394.966 468.501L392.542 475.509H397.39ZM423.474 464.637V481.389H420.114V470.493L415.626 481.389H413.082L408.57 470.493V481.389H405.21V464.637H409.026L414.354 477.093L419.682 464.637H423.474ZM348.534 494.637C350.294 494.637 351.838 494.981 353.166 495.669C354.51 496.357 355.542 497.341 356.262 498.621C356.998 499.885 357.366 501.357 357.366 503.037C357.366 504.717 356.998 506.189 356.262 507.453C355.542 508.701 354.51 509.669 353.166 510.357C351.838 511.045 350.294 511.389 348.534 511.389H342.678V494.637H348.534ZM348.414 508.533C350.174 508.533 351.534 508.053 352.494 507.093C353.454 506.133 353.934 504.781 353.934 503.037C353.934 501.293 353.454 499.933 352.494 498.957C351.534 497.965 350.174 497.469 348.414 497.469H346.038V508.533H348.414ZM363.242 497.349V501.549H368.882V504.213H363.242V508.653H369.602V511.389H359.882V494.613H369.602V497.349H363.242ZM378.439 511.557C377.271 511.557 376.215 511.357 375.271 510.957C374.343 510.557 373.607 509.981 373.063 509.229C372.519 508.477 372.239 507.589 372.223 506.565H375.823C375.871 507.253 376.111 507.797 376.543 508.197C376.991 508.597 377.599 508.797 378.367 508.797C379.151 508.797 379.767 508.613 380.215 508.245C380.663 507.861 380.887 507.365 380.887 506.757C380.887 506.261 380.735 505.853 380.431 505.533C380.127 505.213 379.743 504.965 379.279 504.789C378.831 504.597 378.207 504.389 377.407 504.165C376.319 503.845 375.431 503.533 374.743 503.229C374.071 502.909 373.487 502.437 372.991 501.813C372.511 501.173 372.271 500.325 372.271 499.269C372.271 498.277 372.519 497.413 373.015 496.677C373.511 495.941 374.207 495.381 375.103 494.997C375.999 494.597 377.023 494.397 378.175 494.397C379.903 494.397 381.303 494.821 382.375 495.669C383.463 496.501 384.063 497.669 384.175 499.173H380.479C380.447 498.597 380.199 498.125 379.735 497.757C379.287 497.373 378.687 497.181 377.935 497.181C377.279 497.181 376.751 497.349 376.351 497.685C375.967 498.021 375.775 498.509 375.775 499.149C375.775 499.597 375.919 499.973 376.207 500.277C376.511 500.565 376.879 500.805 377.311 500.997C377.759 501.173 378.383 501.381 379.183 501.621C380.271 501.941 381.159 502.261 381.847 502.581C382.535 502.901 383.127 503.381 383.623 504.021C384.119 504.661 384.367 505.501 384.367 506.541C384.367 507.437 384.135 508.269 383.671 509.037C383.207 509.805 382.527 510.421 381.631 510.885C380.735 511.333 379.671 511.557 378.439 511.557ZM390.64 494.637V511.389H387.28V494.637H390.64ZM405.624 499.677C405.24 498.973 404.712 498.437 404.04 498.069C403.368 497.701 402.584 497.517 401.688 497.517C400.696 497.517 399.816 497.741 399.048 498.189C398.28 498.637 397.68 499.277 397.248 500.109C396.816 500.941 396.6 501.901 396.6 502.989C396.6 504.109 396.816 505.085 397.248 505.917C397.696 506.749 398.312 507.389 399.096 507.837C399.88 508.285 400.792 508.509 401.832 508.509C403.112 508.509 404.16 508.173 404.976 507.501C405.792 506.813 406.328 505.861 406.584 504.645H400.824V502.077H409.896V505.005C409.672 506.173 409.192 507.253 408.456 508.245C407.72 509.237 406.768 510.037 405.6 510.645C404.448 511.237 403.152 511.533 401.712 511.533C400.096 511.533 398.632 511.173 397.32 510.453C396.024 509.717 395 508.701 394.248 507.405C393.512 506.109 393.144 504.637 393.144 502.989C393.144 501.341 393.512 499.869 394.248 498.573C395 497.261 396.024 496.245 397.32 495.525C398.632 494.789 400.088 494.421 401.688 494.421C403.576 494.421 405.216 494.885 406.608 495.813C408 496.725 408.96 498.013 409.488 499.677H405.624ZM426.71 511.389H423.35L415.742 499.893V511.389H412.382V494.613H415.742L423.35 506.133V494.613H426.71V511.389ZM348.534 524.637C350.294 524.637 351.838 524.981 353.166 525.669C354.51 526.357 355.542 527.341 356.262 528.621C356.998 529.885 357.366 531.357 357.366 533.037C357.366 534.717 356.998 536.189 356.262 537.453C355.542 538.701 354.51 539.669 353.166 540.357C351.838 541.045 350.294 541.389 348.534 541.389H342.678V524.637H348.534ZM348.414 538.533C350.174 538.533 351.534 538.053 352.494 537.093C353.454 536.133 353.934 534.781 353.934 533.037C353.934 531.293 353.454 529.933 352.494 528.957C351.534 527.965 350.174 527.469 348.414 527.469H346.038V538.533H348.414ZM363.242 527.349V531.549H368.882V534.213H363.242V538.653H369.602V541.389H359.882V524.613H369.602V527.349H363.242ZM387.703 524.637L381.559 541.389H377.479L371.335 524.637H374.935L379.543 537.957L384.127 524.637H387.703ZM393.078 527.349V531.549H398.718V534.213H393.078V538.653H399.438V541.389H389.718V524.613H399.438V527.349H393.078ZM405.851 538.725H411.371V541.389H402.491V524.637H405.851V538.725ZM421.283 541.557C419.715 541.557 418.275 541.189 416.963 540.453C415.651 539.717 414.611 538.701 413.843 537.405C413.075 536.093 412.691 534.613 412.691 532.965C412.691 531.333 413.075 529.869 413.843 528.573C414.611 527.261 415.651 526.237 416.963 525.501C418.275 524.765 419.715 524.397 421.283 524.397C422.867 524.397 424.307 524.765 425.603 525.501C426.915 526.237 427.947 527.261 428.699 528.573C429.467 529.869 429.851 531.333 429.851 532.965C429.851 534.613 429.467 536.093 428.699 537.405C427.947 538.701 426.915 539.717 425.603 540.453C424.291 541.189 422.851 541.557 421.283 541.557ZM421.283 538.557C422.291 538.557 423.179 538.333 423.947 537.885C424.715 537.421 425.315 536.765 425.747 535.917C426.179 535.069 426.395 534.085 426.395 532.965C426.395 531.845 426.179 530.869 425.747 530.037C425.315 529.189 424.715 528.541 423.947 528.093C423.179 527.645 422.291 527.421 421.283 527.421C420.275 527.421 419.379 527.645 418.595 528.093C417.827 528.541 417.227 529.189 416.795 530.037C416.363 530.869 416.147 531.845 416.147 532.965C416.147 534.085 416.363 535.069 416.795 535.917C417.227 536.765 417.827 537.421 418.595 537.885C419.379 538.333 420.275 538.557 421.283 538.557ZM444.566 529.821C444.566 530.717 444.35 531.557 443.918 532.341C443.502 533.125 442.838 533.757 441.926 534.237C441.03 534.717 439.894 534.957 438.518 534.957H435.71V541.389H432.35V524.637H438.518C439.814 524.637 440.918 524.861 441.83 525.309C442.742 525.757 443.422 526.373 443.87 527.157C444.334 527.941 444.566 528.829 444.566 529.821ZM438.374 532.245C439.302 532.245 439.99 532.037 440.438 531.621C440.886 531.189 441.11 530.589 441.11 529.821C441.11 528.189 440.198 527.373 438.374 527.373H435.71V532.245H438.374Z" fill="#E8A996"/>
<path d="M382.581 259.667L379.529 263.526L419.918 274.348L419.204 269.48L382.581 259.667Z" fill="#B5AAFF"/>
<path d="M419.974 274.822C419.493 276.618 409.985 275.631 398.738 272.617C387.49 269.603 378.762 265.704 379.243 263.908C379.725 262.113 389.233 263.1 400.48 266.114C411.728 269.127 420.456 273.026 419.974 274.822Z" fill="#B5AAFF"/>
<ellipse cx="400.893" cy="264.573" rx="18.9577" ry="2.48045" transform="rotate(15 400.893 264.573)" fill="#CFC8FF"/>
<rect x="420.107" y="182.595" width="5.31526" height="83.4495" transform="rotate(15 420.107 182.595)" fill="#AAA2DE"/>
<ellipse cx="401.077" cy="263.888" rx="2.65763" ry="0.708701" transform="rotate(15 401.077 263.888)" fill="#AAA2DE"/>
<path d="M440.295 231.842L443.328 186.982L402.939 176.16L383.05 216.503L440.295 231.842Z" fill="#BEB4FF"/>
<ellipse cx="423.133" cy="181.571" rx="20.9067" ry="4.42938" transform="rotate(15 423.133 181.571)" fill="#BEB4FF"/>
<ellipse cx="423.316" cy="180.887" rx="16.4773" ry="2.48045" transform="rotate(15 423.316 180.887)" fill="#AAA2DE"/>
<ellipse cx="411.76" cy="224.013" rx="29.7654" ry="6.20113" transform="rotate(15 411.76 224.013)" fill="#BEB4FF"/>
<path fill-rule="evenodd" clip-rule="evenodd" d="M430.106 184.983C427.858 184.566 425.329 183.993 422.674 183.282C420.02 182.571 417.543 181.802 415.389 181.039C416.519 177.036 420.661 174.672 424.692 175.752C428.723 176.832 431.129 180.95 430.106 184.983Z" fill="#D1CAFF"/>
<defs>
<radialGradient id="paint0_radial_1519_292" cx="0" cy="0" r="1" gradientUnits="userSpaceOnUse" gradientTransform="translate(569.724 371.38) rotate(-135.531) scale(159.373 386.909)">
<stop stop-color="white"/>
<stop offset="1" stop-color="white" stop-opacity="0"/>
</radialGradient>
<radialGradient id="paint1_radial_1519_292" cx="0" cy="0" r="1" gradientUnits="userSpaceOnUse" gradientTransform="translate(574.363 388.507) rotate(-135.531) scale(159.373 386.909)">
<stop stop-color="white"/>
<stop offset="1" stop-color="white" stop-opacity="0"/>
</radialGradient>
<radialGradient id="paint2_radial_1519_292" cx="0" cy="0" r="1" gradientUnits="userSpaceOnUse" gradientTransform="translate(545.916 341.804) rotate(-135.531) scale(159.373 386.909)">
<stop stop-color="white"/>
<stop offset="1" stop-color="white" stop-opacity="0"/>
</radialGradient>
<radialGradient id="paint3_radial_1519_292" cx="0" cy="0" r="1" gradientUnits="userSpaceOnUse" gradientTransform="translate(550.105 357.266) rotate(-135.531) scale(159.373 386.909)">
<stop stop-color="white"/>
<stop offset="1" stop-color="white" stop-opacity="0"/>
</radialGradient>
<radialGradient id="paint4_radial_1519_292" cx="0" cy="0" r="1" gradientUnits="userSpaceOnUse" gradientTransform="translate(603.531 437.868) rotate(-135.531) scale(159.373 386.909)">
<stop stop-color="white"/>
<stop offset="1" stop-color="white" stop-opacity="0"/>
</radialGradient>
<radialGradient id="paint5_radial_1519_292" cx="0" cy="0" r="1" gradientUnits="userSpaceOnUse" gradientTransform="translate(608.171 454.994) rotate(-135.531) scale(159.373 386.909)">
<stop stop-color="white"/>
<stop offset="1" stop-color="white" stop-opacity="0"/>
</radialGradient>
<radialGradient id="paint6_radial_1519_292" cx="0" cy="0" r="1" gradientUnits="userSpaceOnUse" gradientTransform="translate(579.723 408.29) rotate(-135.531) scale(159.373 386.909)">
<stop stop-color="white"/>
<stop offset="1" stop-color="white" stop-opacity="0"/>
</radialGradient>
<radialGradient id="paint7_radial_1519_292" cx="0" cy="0" r="1" gradientUnits="userSpaceOnUse" gradientTransform="translate(583.913 423.753) rotate(-135.531) scale(159.373 386.909)">
<stop stop-color="white"/>
<stop offset="1" stop-color="white" stop-opacity="0"/>
</radialGradient>
<linearGradient id="paint8_linear_1519_292" x1="578.403" y1="605.938" x2="530.915" y2="604.76" gradientUnits="userSpaceOnUse">
<stop stop-color="#F5B523"/>
<stop offset="1" stop-color="#D38300"/>
</linearGradient>
<linearGradient id="paint9_linear_1519_292" x1="507.997" y1="563.949" x2="500.861" y2="558.775" gradientUnits="userSpaceOnUse">
<stop stop-color="#F5B523"/>
<stop offset="1" stop-color="#8E5901"/>
</linearGradient>
<linearGradient id="paint10_linear_1519_292" x1="505.34" y1="590.862" x2="521.508" y2="629.119" gradientUnits="userSpaceOnUse">
<stop stop-color="#F5B523"/>
<stop offset="0.16" stop-color="#FDA71A"/>
<stop offset="0.95" stop-color="#E79002"/>
<stop offset="1" stop-color="#444BEF"/>
</linearGradient>
<linearGradient id="paint11_linear_1519_292" x1="531.801" y1="538.862" x2="514.462" y2="556.24" gradientUnits="userSpaceOnUse">
<stop stop-color="#F5B523"/>
<stop offset="1" stop-color="#F5B523" stop-opacity="0"/>
</linearGradient>
<radialGradient id="paint12_radial_1519_292" cx="0" cy="0" r="1" gradientUnits="userSpaceOnUse" gradientTransform="translate(512.676 547.309) rotate(-58.5779) scale(7.52737 7.52827)">
<stop stop-color="#F5B523" stop-opacity="0"/>
<stop offset="0.65" stop-color="#F5B523" stop-opacity="0.141176"/>
<stop offset="0.84" stop-color="#F5B523" stop-opacity="0.533333"/>
<stop offset="1" stop-color="#F5B523"/>
</radialGradient>
<linearGradient id="paint13_linear_1519_292" x1="494.536" y1="518.902" x2="486.948" y2="499.469" gradientUnits="userSpaceOnUse">
<stop stop-color="#F5B523"/>
<stop offset="1" stop-color="#CD7F00"/>
</linearGradient>
</defs>
</svg>
